<?xml version="1.0" encoding="UTF-8"?><svg id="Layer_2" xmlns="http://www.w3.org/2000/svg" viewBox="0 0 514.19 201.92"><defs><style>.cls-1,.cls-2{stroke:#000;stroke-miterlimit:10;}.cls-2{fill:none;}</style></defs><g id="Layer_1-2"><g><path class="cls-2" d="m400.17,76.04c-.78,0-1.42-.27-1.74-.78l-.02-.04c-1.02-1.65-3.09-2.56-5.82-2.56-2.21,0-4.71.63-7.04,1.76-.66.32-1.33.48-1.92.48-.78,0-1.43-.27-1.74-.79-3.22-5.27,1.28-13.6,10.01-18.57,4.09-2.33,8.55-3.61,12.57-3.61,4.28,0,7.67,1.5,9.3,4.12,3.28,5.27-1.19,13.63-9.97,18.62-.65.37-1.22.66-1.78.93-.63.29-1.27.44-1.83.44Z"/><path class="cls-1" d="m410.9,57.67c2.68,4.31-1,11.12-8.22,15.23-.46.26-.93.51-1.41.73l-.02-.04c-2.51-4.03-9.7-4.43-16.53-1.09-2.63-4.31,1.05-11.09,8.26-15.19,7.22-4.11,15.24-3.95,17.92.36Z"/><path class="cls-2" d="m239.17,201.42c-12.01,0-20.12-2.64-24.09-7.85-3.28-4.3-3.44-10.22-.45-16.68,4.36-9.42,10.03-13.49,12.24-14.8l2.08-2c.11-.1.22-.2.34-.3,4.63-4.04,8.95-6.07,11.78-7.07.48-.17.95-.25,1.38-.25.35,0,.68.06.96.17.04.02.1.03.15.03.03,0,.06,0,.09,0,0,0,.02,0,.03-.01.03-.01.09-.04.16-.1,3.1-2.46,6.9-5.33,11.65-8.06,1.4-.81,2.85-1.59,4.33-2.31,5.98-2.94,11.6-4.78,16.7-5.46,1.4-.18,2.71-.27,3.92-.27.25,0,.48,0,.7.01.07-.02.22-.05.23-.06-10.45-3.07-10.14-10.46-10.12-10.82.01-.18.05-.37.12-.56-6.84,2.98-18.61,7.91-28.22,10.08-.06.01-.11.02-.17.03l-6.05,1.12c-.92,1.17-2.21,2.21-3.76,3.03-1.04.55-2.19.86-3.22.86-1.47,0-2.54-.61-2.85-1.62,0,0-.8-1.43-9.62-1.46h-.24c-13.51,0-28.41,3.93-39.28,6.8-6.74,1.78-11.61,3.06-14.62,3.06-3.39-.01-12.29-.04-8.97-7.17.67-1.43,1.64-2.83,2.61-4.04-7.98-.7-9.15-7.39-7.35-13.16-7,7.94-18.49,19.13-30.29,22.76-1.78.55-3.49.83-5.06.83-3.23,0-5.46-1.19-6.13-3.25-.17-.54-.25-1.11-.24-1.69-1.44.47-2.78.71-4.01.71-1.67,0-2.91-.44-3.82-1.07-1.11.88-2.36,1.72-3.76,2.51-3.18,1.78-6.69,2.8-9.64,2.8-1.63,0-3.06-.32-4.13-.92-1.48-.83-2.5-2.04-3.03-3.63-2.85,1.64-5.62,2.88-8.29,3.71-1.79.55-3.5.83-5.07.83-3.23,0-5.46-1.19-6.13-3.25-.17-.54-.25-1.11-.24-1.69-1.44.47-2.78.71-4.01.71-1.67,0-2.91-.44-3.82-1.07-1.11.88-2.36,1.72-3.76,2.51-3.18,1.78-6.69,2.8-9.64,2.8-1.63,0-3.06-.32-4.13-.92-.38-.21-.73-.45-1.05-.71-5.4,3.14-12.88,5.13-19.81,5.13-6.43,0-11.14-1.78-12.58-4.77-.9-1.85-.49-4.1,1.14-6.33,1.86-2.54,5.11-4.86,9.3-6.65,1.23-5.27,7-15.02,16.89-28.5,16.51-22.53,33.77-38.39,40.19-43.98-.95-1.78-.61-3.95,1.02-6.19,1.71-2.33,4.7-4.49,8.49-6.16,4.61-5.35,20.67-22.79,33.93-22.79,2.95,0,5.27.62,6.87,1.83,10.01-8.66,17.87-13.86,23.91-15.81,2.38-2.99,8.35-9.81,13.2-9.81,1.28,0,2.22.49,2.65,1.37,1.03,2.11-1.09,6.09-2.86,8.82,3.06,2.27,3.28,7.56.69,16.04,1.77-.62,3.58-1.12,5.36-1.5.27-.06.54-.08.79-.08.29,0,.56.04.8.11,1.41.42,2.6,1.01,3.56,1.74,9.49-8.41,17.34-14.45,23.89-16.65,2.37-2.98,8.35-9.85,13.23-9.85,1.28,0,2.22.49,2.65,1.37,1.03,2.11-1.09,6.09-2.86,8.82,3.05,2.26,3.28,7.53.72,15.96,2.12-.78,4.16-1.35,6.11-1.71,4.98-1.58,10.65-2.45,16.02-2.45,8.03,0,13.76,1.91,15.31,5.11.79,1.64.47,3.51-.93,5.42-4.51,6.15-17.67,9.47-27.76,9.47-6.03,0-10.89-1.12-13.53-3.06-.06.03-.12.07-.18.1-7.57,17.05-20.18,38.37-28.88,52.45,15.17-9.85,36.68-18.26,46.59-18.26,16.79.05,20.14,6.91,20.73,10.58,1.58-.92,3.92-2.97,5.79-5.13.14-.56-.24-.56-.5-.57-3.27,0-4.55-2.6-2.95-6.02,1.56-3.36,5.24-5.8,8.74-5.8,4.51.02,16.62,3.23,19.03,6.62.64.89.71,1.87.23,2.9-1.75,3.76-5.94,5.41-8.33,5.6-.1,0-.19.01-.28.01h-.01c-1.36,0-8.37,3.5-20.35,13.91-10.21,8.87-18.33,17.86-20.69,22.89-.97,2.05-1.75,3.72,5.49,4.16.19-.57.41-1.12.65-1.65,1.17-2.53,2.83-4.7,4.19-6.22-1.1-1.2-1.5-3.39.23-7.14,6.64-14.33,47.62-33.37,62.33-33.37,16.76,0,20.14,6.84,20.75,10.5,1.58-.92,3.91-2.99,5.77-5.15.14-.56-.22-.56-.5-.56-3.29,0-4.58-2.59-2.99-6.03.65-1.39,1.71-2.71,3-3.71,1.73-1.35,3.77-2.09,5.73-2.09,3.18,0,22.03,3.57,19.32,9.43-1.74,3.76-5.93,5.43-8.32,5.63-.1,0-.2.01-.3.01-1.35,0-8.34,3.51-20.29,13.94-10.18,8.89-18.27,17.9-20.61,22.94-.82,1.76-1.46,3.14,2.45,3.8.18-3.93.79-7.58,4.4-10.38,2.92-2.27,6.95-3.33,12.68-3.34h0c.08,0,.15,0,.23,0,1.48-1.11,3.81-3.06,5.94-4.84,10.7-8.95,28.61-23.92,42.02-23.92,2.94,0,4.87.73,5.75,2.17.09.14.16.29.22.44.18-.07.36-.15.55-.22,2.48-1,5.15-1.79,7.91-2.34,1.47-.29,2.95-.51,4.42-.66,3.14-1.35,6.67-2.1,10.03-2.1,4.67,0,8.28,1.44,9.75,3.82,4.74.54,11.35,2.54,12.69,9.34,12.03-17.65,28.73-20.66,38.09-20.8,13.54,0,18.32,2.18,19.74,4.35,2.73-.78,6.97-1.57,13.02-1.57,10.86,0,14.13,6.69,14.49,11.37,4.21.02,17.05,1.11,16.08,13.42-.1,1.26-.96,2.58-2.35,3.63-1.42,1.07-3.21,1.71-4.77,1.71h0c-1.37,0-2.41-.49-2.93-1.38-1.68-2.89-4.82-4.66-9.35-5.29-.38,1.15-.87,2.22-1.16,2.85-3.29,7.1-18.09,11.45-27.25,11.45-3.54,0-5.77-.76-6.62-2.25-.65-1.15-.45-2.59.59-4.3.42-.95,1.35-1.95,2.2-2.65,1.99-1.64,5.7-3.58,12.09-3.58,8.81,0,9.06-.54,9.66-1.85.32-.7.66-1.42-1.75-1.42h-.12c-8.13,0-21.97,4.77-37.95,13.08-5.82,3.03-10.77,5.92-14.72,8.43.84-.13,1.74-.21,2.7-.21,4.36,0,6.11,1.51,6.8,2.77,1.5,2.71-.48,6.33-1.05,7.28-.36.73-.85,1.47-1.42,2.19,5.85-1.72,12.07-3.3,15.12-3.3,2.77,0,8.53,0,6.2,5.03-1.4,3.03-11.47,11.69-38.36,11.69-12.01,0-20.12-2.64-24.09-7.85-3.28-4.3-3.44-10.22-.45-16.68,2.27-4.9,4.87-8.34,7.18-10.71-.72-.13-1.39-.32-1.98-.57-2.74-1.11-3.76-3.32-2.64-5.74.54-1.18,1.52-2.29,2.83-3.26-1.22-1.36-2.98-2.54-5.97-3.11-.62-.11-1.25-.26-1.92-.44-3.26,1.52-7.04,2.37-10.64,2.37-3.9,0-7.1-1.01-8.9-2.76-1.69.39-3.52.9-5.44,1.5-2.15.68-4.42,1.48-6.73,2.38-12.15,4.7-24.16,11.28-32.43,16.54.83-.13,1.72-.2,2.66-.2,4.36,0,6.11,1.51,6.8,2.77,1.5,2.71-.48,6.33-1.05,7.28-.36.74-.85,1.48-1.42,2.2,3.83-1.12,8.02-2.25,11.21-2.84,2.42-2.34,6.78-3.93,11.26-3.93,2.52,0,4.66.53,6.01,1.5.85.58,1.38,1.33,1.54,2.2.15.69.03,1.48-.33,2.27-1.47,3.17-6.32,5.61-11.57,5.93-4,2.97-14.11,8.29-35.16,8.29-.69,0-1.38,0-2.05-.03,1.05,1.89,1.42,3.82,1.54,5.15,4.85.02,15.77,1.22,16.15,11.58.14.32.26.65.34.99,9.3,1.71,13.58,5.37,11.47,9.91-2.5,5.39-14.56,10.84-32.78,10.84h-.3c-8.89,4.11-20.67,8.38-35.08,12.72-2.08,3.34-12.4,11.27-38.12,11.27Zm-1.98-14.36c0,.2.02.39.1.55.09.19.27.34.53.46-.3-.24-.53-.57-.64-1.01Zm20.43-1.26c-.36.73-.85,1.47-1.41,2.19,5.84-1.71,12.06-3.3,15.11-3.3,1.48,0,2.64.07,3.56.23,6-1.92,15.52-5.11,24.68-8.8-7.91-1.8-11.61-5.29-9.64-9.54,2.09-4.5,10.85-9.05,24.32-10.43-.83-.19-1.7-.44-2.67-.75-1.49-.47-3.24-.71-5.2-.71-.6,0-1.17.02-1.7.07-.11,0-.21.01-.31.01-.34,0-.65-.05-.92-.15-.51-.19-1.21-.19-1.48-.19h-.13c-3.5,0-8.03.87-13.47,2.58-2.16.68-4.43,1.49-6.73,2.38-12.14,4.7-24.16,11.28-32.43,16.54.83-.13,1.72-.2,2.66-.2,4.36,0,6.11,1.51,6.8,2.77,1.5,2.71-.48,6.33-1.05,7.28ZM103.3,59.5c-20.85,21.71-44.19,48.95-51.81,59.36-3.01,4.14-7.3,11.75-5.96,14.5.31.64.93.95,2,.98-.55-3.14,1.11-9.25,10.82-20.95,13.6-16.4,35.93-38.47,39.41-41.89.75-1.5,3.15-6.37,5.54-12Zm59.12,13.04c-1.65,3.68-11.48,25.35-22.02,41.91-6.44,10.12-12.59,15.9-17.3,19.18,6.83-2.69,15-12.17,17.71-15.84,7.49-10.22,23.6-36.65,34.57-58.12-6.3,6.02-11.46,11.32-12.96,12.87Zm14.57,59.43c1.02.08,2.11.13,3.17.14,6.62,0,12.15-3.75,16.06-7.54-4.94,2.13-12.13,5.11-19.23,7.4Zm-147.13-3.38c1.26.08,2.44.24,3.52.47,3.39-7.87,9.11-15.61,9.39-15.99,1.9-2.58,21.01-26.28,42.51-49.86-1.86.29-3.72.44-5.49.44-.97,0-1.91-.05-2.81-.14-5.68,4.32-16.34,14.08-31.62,34.93-9.54,13.02-13.79,24.41-15.5,30.14Zm114.61-43.62c-8.49,8.5-20.5,21.02-27.34,30.35-1.43,1.96-2.62,3.78-3.54,5.39-.55.97-.67,1.73-.36,2.23.33.53,1.18.83,2.33.83,2.4,0,5.96-1.27,8.5-4.1,1.5-1.67,2.98-3.49,4.38-5.42,6.52-8.89,12.32-20.83,16.03-29.29Zm-48.12,0c-8.49,8.5-20.5,21.02-27.34,30.35-1.43,1.96-2.62,3.78-3.54,5.39-.55.97-.68,1.73-.36,2.23.33.53,1.18.83,2.33.83,2.4,0,5.96-1.27,8.5-4.1,1.51-1.67,2.98-3.49,4.38-5.42,6.52-8.89,12.32-20.83,16.03-29.29Zm174.55,12.18c-11.86,5.69-18.98,10.16-20.36,11.59,4.13-.38,12.06-3.6,17.38-7.11,2.37-1.57,3.22-2.55,3.4-2.88-.32-.52-.25-1.2.13-1.86-.18.09-.37.17-.55.26Zm-73.76-1.08c-9.64,4.59-19.04,9.74-20.95,11.82,4.15-.37,12.1-3.58,17.42-7.08,2.35-1.55,3.2-2.53,3.38-2.85-.32-.53-.25-1.22.15-1.89Zm84.13-3.59c1.07.28,2.48,1.19,1.11,4.14-1.13,2.43-3.33,5.57-6.7,8.7,8.76-5.68,16.06-12.04,18.17-16.59.05-.12.1-.22.14-.31-.12,0-.27,0-.43,0-1.46,0-5.9,1.4-12.29,4.06Zm-74.37-.8c.6.14,1.08.42,1.37.84.55.76.48,1.86-.22,3.34-1.15,2.45-3.39,5.61-6.82,8.75,9.25-5.92,16.26-12.25,18.31-16.62.05-.12.1-.22.14-.31-.12,0-.26,0-.42,0-2.02,0-6.74,1.63-12.36,4Zm-92.6-19.14c-1.28,2.85-7.46,16.5-15.09,30.2,3.41-4.14,7.68-9.26,12.5-14.91,5.92-10.09,11.26-19.75,15.54-28.16-6.3,6.02-11.46,11.32-12.96,12.87Zm10.22,16.34c-3.11,5.07-6.01,9.68-8.48,13.53,12.65-13.95,27.09-28.22,29.83-30.91.75-1.5,3.15-6.37,5.54-12-8.37,8.72-17.64,18.83-26.9,29.38Zm325.43-10.6c-16.33,0-22.79,7.79-26.6,14.57-.07.12-.05.14-.04.16.03.05.14.11.27.11.08,0,.14,0,.29-.12,4.14-3.28,9.28-7.08,15.96-10.36,4.3-2.11,8.05-3.48,11.26-4.35-.37,0-.75,0-1.15,0ZM151.38,39.64c-2.07,4.02-7.55,12.55-13.49,21.68,7.6-9.34,14.88-18.2,18.87-22.43-.36-.4-.89-.63-1.25-.67-.7.06-2.44.55-4.13,1.43Zm-27.36-.44c-.72,3.49-2.56,8.41-5.48,14.63-.28.6-.56,1.19-.85,1.78,6.1-6.01,13.3-12.78,19.19-17.41,2.41-6.96,1.65-8.58,1.43-8.87-.13.01-.26.02-.38.02-.15,0-.3-.01-.44-.03-.37.07-3.4.87-13.47,9.88Zm48.12,0c-.72,3.49-2.56,8.4-5.48,14.63-.28.6-.56,1.19-.85,1.78,6.1-6.01,13.3-12.78,19.19-17.41,2.41-6.96,1.65-8.58,1.43-8.87-.13.01-.26.02-.38.02-.15,0-.3-.01-.44-.03-.36.06-3.37.85-13.47,9.88Zm-76.78,4.79c2.61.22,4.79.81,6.4,1.72,2.48-2.53,4.93-4.99,7.33-7.33-.39-.14-1.21-.31-2.85-.31-3.8,0-8.37,3.54-10.89,5.93Z"/><path class="cls-1" d="m510.59,98.72c1.05-13.38-16.08-11.69-16.08-11.69,0,0,.92-11.43-12.56-11.43-10.33,0-14.61,2.42-14.61,2.42.07-.15,2.26-5.21-18.1-5.21-21.24.31-32.38,14.5-37.36,23.64-.59-.13-1.25-.22-1.97-.24-.07-.64-.26-1.22-.51-1.72-.12-8.18-7.7-9.99-12.41-10.34-.78-2.19-3.91-3.7-8.33-3.7-3.16,0-6.38.77-8.98,2.02-1.68.13-3.26.37-4.72.66-2.85.57-5.25,1.35-7.09,2.09-2.72,1.08-4.25,2.07-4.25,2.07,0,0,2.4-4.13-3.84-4.13-18.32,0-48.91,34-48.18,28.75-13.6.03-12.75,6.35-13.04,14.09-9.26-.36-10.08-2.57-8.22-6.57,5.55-11.99,36.95-39.28,44.85-39.28,0,0,3.29-.27,4.66-3.24s-13.06-7.03-17.59-7.03-7.17,7.03-3.52,7.03,2.13,3.24,2.13,3.24c0,0-7,8.51-11.48,7.72,0,0,1.58-10.96-18.9-10.96-13.87,0-52.54,18.36-58.38,30.97-2.78,6,1.16,6,1.16,6,0,0-3.6,3.07-5.59,7.37-.54,1.16-1,2.62-1.2,4.16-11.56-.1-12.67-2.33-10.63-6.67,5.6-11.99,37.1-39.22,45-39.19,0,0,3.28-.26,4.66-3.22,1.39-2.96-12.99-7.09-17.52-7.1-4.52-.02-7.2,7.02-3.56,7.03,3.61.02,2.13,3.22,2.12,3.26,0,0-7.04,8.49-11.5,7.69,0,0,1.63-10.97-18.82-11.04-12.01-.04-42.69,13.68-54.48,25.53,9.87-15.45,26.49-42.66,35.41-63.1,1.49-.93,2.85-1.67,4.04-2.13,1.63,2.19,6.45,3.67,13.19,3.67,10.24,0,21.04-3.41,24.12-7.6,3.07-4.21-2.73-7.61-12.97-7.61-5.23,0-10.61.89-15.03,2.32,0,0-.01,0-.02,0-3.32.57-6.76,1.82-10.2,3.53,3.65-10.1,4.35-17.37-.31-18.71,3.68-5.07,5-9.15,2.93-9.15s-6.8,4.13-10.55,9.24c-6.45,1.51-15.44,8.7-26.41,18.63-.78-1.44-2.37-2.57-4.52-3.21-3.12.65-6.34,1.77-9.25,3.21,3.65-10.1,4.35-17.37-.31-18.71,3.68-5.07,5-9.15,2.93-9.15s-6.79,4.12-10.54,9.22c-6.44,1.45-15.89,8.3-26.49,17.79-.88-1.86-2.91-3.21-6.95-3.21-12.48,0-29.85,20.4-31.17,21.98-3.37,1.33-6.16,3.13-7.61,5.11-1.49,2.04-1.29,3.89.25,5.24-3.4,2.85-22.99,19.72-41.47,44.93-14.91,20.33-16.7,27.01-16.61,29.13-4.26,1.49-7.84,3.64-9.58,6.02-3.3,4.51,1.17,8.17,10.02,8.17,7.49,0,15.7-2.63,20.05-6.19.43.84,1.09,1.54,2.01,2.05,2.22,1.25,6.49.63,10.37-1.54,2.1-1.18,4.31-2.78,5.82-4.85,0,0,1.33,6.27,11.36,0-1.51,2.07-1.65,3.66-1.28,4.85.7,2.17,4.07,2.79,8.11,1.54,3.71-1.15,7.43-3.16,11-5.64-.07,2.47.69,4.5,2.73,5.64,2.22,1.25,6.49.63,10.37-1.54,2.1-1.18,4.31-2.78,5.82-4.85,0,0,1.33,6.27,11.36,0-1.51,2.07-1.65,3.66-1.28,4.85.7,2.17,4.07,2.79,8.11,1.54,17.21-5.3,34.68-29.51,34.68-29.51.34-.47,1.46-2.11,3.13-4.65-1.09,3.97,1.9,3.99,1.9,3.99,0,0-3.6,3.06-5.61,7.36-2.01,4.31-3,13.03,6.13,13.07.81,0,1.79-.07,2.95-.22-.06.05-.09.07-.09.07,0,0-3.6,3.31-5.12,6.54-1.51,3.24.24,4.74,7.21,4.76,6.97.03,32.18-9.94,54.18-9.86,9.02.02,11.15,1.46,11.49,2.54.19.62,1.23.71,2.12.23,1.09-.57,2.25-1.46,2.84-2.72.08-.17.16-.34.24-.53.49-.04,1.02-.1,1.59-.17l6.52-1.21c13.42-3.03,31.47-11.77,33.02-12.25,0,0,1.92-.69.78.81-.75.97-1.72,2.17-2.9,3.45,0,0-.54,8.69,14.01,10.27l4.85.25c.52,0,1.02,0,1.49.02.01.08.03.16.04.24-5.13.7-7.37,1.97-7.37,1.97l-6.17,1.14-.08.02h-.02c-.27.12-.54.17-.82.16-1.02-.05-2.47-.02-4.34.22-3.58.47-8.68,1.77-15.24,5.01-1.41.69-2.76,1.42-4.03,2.15-4.47,2.57-8.09,5.31-11.02,7.64-.5.4-1.04.69-1.55.88l-.04.02c-1,.36-1.96.37-2.66.09-2.65.93-6.33,2.75-10.31,6.26h0l-2.53,2.43s-6.21,2.95-11.02,13.32-1.78,22.13,22.81,22.13,33.61-7.59,34.4-9.29c.2-.42.33-.81.35-1.13,17.07-5.06,29.14-9.59,37.57-13.57.39,0,.79,0,1.18,0,13.76,0,26.66-3.78,28.82-8.44,1.61-3.48-3.22-6.47-11.5-7.77-.04-.72-.24-1.36-.52-1.91-.18-11.9-16.12-10.34-16.12-10.34,0,0,.56-7-5.65-10.04.2-.22.38-.46.54-.71,2.79.5,6.02.77,9.75.77,21.13,0,30.76-5.6,33.56-8.26.13,0,.27,0,.42,0,3.94,0,7.88-1.6,8.79-3.57.18-.38.23-.76.15-1.1-.09-.52-.43-.97-.97-1.35-.97-.69-2.62-1.12-4.66-1.12-3.95,0-7.89,1.6-8.8,3.57v.02c-6.2.77-20.53,5.5-21.01,5.65.34-.24,5.65-4.07,7.11-7.23,0,0,4.83-7.47-4.1-7.47s-11.66,8-10.2,8,1.51-3.83,4.12-3.83,2.45,2.21,2.12,2.93-3.4,5.48-8.29,5.48c-7.68,0-2.89-6.57-2.89-6.57,2.02-4.36,25.12-18.91,45.6-26.83,2.4-.93,4.75-1.77,7.04-2.49,2.63-.82,5.18-1.5,7.55-1.97,1.13,1.83,4.04,3.04,8.01,3.04,3.66,0,7.39-1.03,10.16-2.63.96.3,1.93.57,2.96.76,4.84.92,6.98,3.25,8.43,5.56-1.97.76-3.52,1.89-4.11,3.16-.69,1.49.13,2.8,1.91,3.52.82.34,1.86.55,3.05.6.18.02.37.02.57.02.86,0,1.73-.08,2.57-.23-1.4.81-6.54,4.25-10.65,13.12-4.8,10.37-1.78,22.13,22.81,22.13s33.61-7.59,34.4-9.29c.79-1.7.58-2.63-4.47-2.63s-21.94,5.6-22.46,5.76c.34-.24,5.65-4.07,7.11-7.23,0,0,4.83-7.47-4.1-7.47s-11.66,8-10.2,8,1.51-3.83,4.12-3.83,2.45,2.21,2.12,2.93-3.4,5.48-8.29,5.48c-7.68,0-2.89-6.57-2.89-6.57,2.83-6.1,46.86-32.11,67.33-32.11.92,0,5.4-.07,3.6,3.81s-5.15,4.25-13.62,4.25-10.36,3.74-10.35,3.88c.02.14-3.4,4.11,4.31,4.11s20.81-3.68,23.3-9.05c2.49-5.37,1.04-5.51,1.04-5.51,9.06,0,13.28,3.1,15.19,6.37.78,1.35,3.99.07,4.13-1.64ZM187.18,26.96c3.57-.51,3.21,4.26.45,11.9-10.58,8.1-26.35,24.36-31.34,29.59,1.53-2.75,4.7-8.56,7.53-14.62,2.56-5.46,4.85-11.14,5.46-14.97,8.45-7.65,15.06-12.41,17.89-11.9Zm-38.12,11.62c2.69-1.69,5.96-2.72,7.58-2.77,1.56.04,3.31,1.07,3.53,2.77-6.17,5.99-28.87,34.85-38.24,45.82-.78.92-2.38.92-1.82,0,6.71-10.98,26.33-39.83,28.94-45.82Zm-9.99-11.62c3.57-.51,3.21,4.26.45,11.9-10.58,8.1-26.35,24.36-31.34,29.59,1.53-2.75,4.7-8.56,7.53-14.62,2.56-5.46,4.85-11.14,5.46-14.97,8.45-7.65,15.07-12.41,17.89-11.9Zm-47.99,18.39c1.37-1.87,9.18-9.68,16.29-9.68s4.69,2.91,4.69,2.91c-3.57,3.46-7.19,7.11-10.81,10.87-1.2-1.91-4.56-3.15-9.36-3.15-.48,0-.97,0-1.45.04.18-.32.39-.64.65-.99Zm-45.78,68.28s-7.63,10.26-10.36,18.89c-1.91-1-4.75-1.59-8.29-1.59h-.31c1.45-5.59,5.66-18.21,16.5-33.01,16.96-23.14,28.53-33.06,34.1-36.99,1.18.21,2.51.32,3.97.32,3.68,0,7.55-.72,10.98-1.92-23.63,25.49-45.02,52.14-46.6,54.28Zm15.45.47c-10.2,12.31-10.75,17.56-10.03,19.66.41,1.23-2.25,3.19-4.07,2.98h-.03c-11.07,0,2.36-18.41,2.36-18.41,8.62-11.76,37.85-45.75,61.01-68.79-3.39,10.26-9.66,22.54-9.66,22.54,0,0-24.84,24.25-39.58,42.02Zm2,6.4c.95-1.67,2.18-3.56,3.75-5.71,10.29-14.03,32.08-35.18,36.8-39.7-1.74,4.52-10.15,25.67-20.44,39.7-1.57,2.15-3.11,4.04-4.62,5.71-6.78,7.56-19.79,7.56-15.49,0Zm21.04,9.97h0c-4.14,3.44-8.87,6.27-13.21,6.27h-.03c-2.11.21-1.91-1.75.31-2.98,3.79-2.11,10.95-7.35,18.78-19.66,11.32-17.77,22.04-42.02,22.04-42.02,0,0,11.74-12.28,23.38-22.54-5.34,11.57-13.19,25.9-20.77,38.79-11.64,13.63-19.92,23.99-20.88,25.29,0,0-6.49,8.72-9.63,16.85Zm4.29-1.29c-.88,0,4.41-8.19,11.82-18.29,7.4-10.1,14.12-18.29,15-18.29s-4.4,8.19-11.81,18.29c-7.4,10.1-14.12,18.29-15.01,18.29Zm20.79-15.08c-10.2,12.31-10.75,17.56-10.03,19.66.41,1.23-2.25,3.19-4.07,2.98h-.03c-4.34,0-4.91-2.83-4.01-6.26h0c8.77-8.14,15.06-16.86,15.06-16.86.96-1.3,7.86-11.66,16.22-25.29,11.31-12.89,24.48-27.23,36.1-38.79-3.39,10.26-9.66,22.54-9.66,22.54,0,0-24.84,24.25-39.58,42.02Zm2,6.4c.95-1.67,2.18-3.56,3.75-5.71,10.29-14.03,32.08-35.18,36.8-39.7-1.74,4.52-10.15,25.67-20.44,39.7-1.57,2.15-3.11,4.04-4.62,5.71-6.78,7.56-19.79,7.56-15.49,0Zm32.48-2.17s-13.58,18.41-24.65,18.41h-.04c-2.1.21-1.9-1.75.32-2.98,3.79-2.11,10.95-7.35,18.78-19.66,11.32-17.77,22.04-42.02,22.04-42.02,0,0,11.74-12.28,23.38-22.54-10.63,23.04-31.22,57.03-39.84,68.79Zm85.48-30.32c1.63,0,1.14,1.07,1.13,1.1-11.52,24.61-42.16,34.8-49.69,34.78-5.76-.02-1.85-1.62-1.85-1.62,7.59.03,42.01-19.83,48.26-33.18,0,0,.51-1.09,2.15-1.08Zm-62.54,17.51c.03-2.05,14.72-17.96,41.8-22.41,2.03-.34-24.01,7.58-40.06,23.32-.78.77-1.77,1.15-1.74-.91Zm1.37,14.48c-5.13-.02-5.97-1.31-5.19-2.99.79-1.68,2.24-1.86,2.24-1.86,27.51.09,38.41-14.82,40.52-19.3,2.09-4.47-5.38.48-5.38.48,2.62,3.65-17.44,14.01-25.48,13.98-2.62,0-1-2.51-1-2.51,2.06-4.41,39.5-22.55,47.03-22.53,2.81,0,3.12.35,2,2.72-5.56,11.9-38.74,32.05-54.73,31.99Zm35.07.63c-3.53,4.59-12.09,13.91-23.69,13.87,0,0-11.27-.09-10.12-2.52,13.42-2.99,31.49-11.68,33.03-12.16,0,0,1.92-.68.78.81Zm37.88-14.23c.02-2.04,14.64-17.98,41.74-22.52,2.03-.34-24,7.65-39.99,23.42-.78.77-1.77,1.16-1.76-.9Zm1.45,14.46c-5.13,0-5.99-1.28-5.21-2.96s2.24-1.87,2.24-1.87c27.55,0,38.4-14.93,40.47-19.41s-5.38.5-5.38.5c2.63,3.64-17.4,14.05-25.46,14.05-2.63,0-1.02-2.5-1.02-2.5,2.04-4.41,39.43-22.65,46.98-22.65,2.81,0,3.12.34,2.02,2.72-5.51,11.9-38.62,32.12-54.64,32.12Zm12.65,3.84c-5.77,0-1.86-1.61-1.86-1.61,7.6,0,41.97-19.94,48.15-33.29,0,0,.51-1.09,2.15-1.09s1.15,1.07,1.13,1.09c-11.4,24.61-42.03,34.9-49.58,34.9Zm48.25,27.36c.41,0,1.56-.02,2.52.33.67-.06,1.34-.08,2.01-.08,2.29,0,4.33.29,6.03.83,1.09.35,2.22.67,3.42.89,3.85.73,5.99,2.36,7.42,4.16-.89-.03-1.82-.05-2.76-.05-13.77,0-26.67,3.78-28.83,8.44-1.84,3.98,4.75,7.32,15.27,8.21-11.58,5.25-25.62,9.98-34.06,12.65-.74-.23-1.94-.36-3.76-.36-4.97,0-21.94,5.6-22.46,5.76.34-.24,5.65-4.07,7.11-7.23,0,0,4.83-7.47-4.1-7.47s-11.66,8-10.2,8,1.51-3.83,4.12-3.83,2.45,2.21,2.12,2.93-3.4,5.48-8.29,5.48c-7.68,0-2.89-6.57-2.89-6.57,2.02-4.36,25.12-18.91,45.6-26.83,2.4-.93,4.75-1.77,7.04-2.49,5.5-1.73,10.58-2.78,14.7-2.78Zm1.42-7.31c-3.04,0-5.8.32-8.22.81-2.85.57-5.25,1.35-7.09,2.09-2.72,1.08-4.25,2.07-4.25,2.07,0,0,2.4-4.13-3.84-4.13-19.47,0-52.83,38.43-47.66,27.27,5.16-11.15,35.7-31.1,50.64-31.1,3.37,0,6.23.14,8.67.37,1.98.18,3.67.42,5.09.68,4.83.86,6.67,1.95,6.67,1.95Zm116.25-52.09c4.52-8.06,12.65-16.77,30.45-16.77,6.94,0,9.87.63,10.97,1.39.89.6-.45,2.12-1.78,2.06-2.98-.14-9.59.31-19.58,5.22-6.38,3.13-11.27,6.8-15.05,9.79-2.86,2.27-6.54,1.04-5.01-1.68Zm44.23-2.5s2.4-4.13-3.84-4.13c-19.47,0-52.83,38.43-47.66,27.27,5.16-11.15,35.7-31.1,50.64-31.1s20.43,3,20.43,3c-11.88,0-19.57,4.96-19.57,4.96Z"/></g></g></svg>